<svg xmlns="http://www.w3.org/2000/svg" viewBox="0 0 24 24"><path fill="#FC3C44" d="M12 0C5.373 0 0 5.373 0 12s5.373 12 12 12 12-5.373 12-12S18.627 0 12 0z"/><path fill="#FFF" d="M15.5 12.5c-.5-.5-1.2-.8-2-.8s-1.5.3-2 .8c-.5.5-.8 1.2-.8 2s.3 1.5.8 2c.5.5 1.2.8 2 .8s1.5-.3 2-.8c.5-.5.8-1.2.8-2s-.3-1.5-.8-2zm-2 4c-.3.3-.7.5-1.2.5s-.9-.2-1.2-.5c-.3-.3-.5-.7-.5-1.2s.2-.9.5-1.2c.3-.3.7-.5 1.2-.5s.9.2 1.2.5c.3.3.5.7.5 1.2s-.2.9-.5 1.2zM12 4c-4.418 0-8 3.582-8 8s3.582 8 8 8 8-3.582 8-8-3.582-8-8-8zm0 14c-3.314 0-6-2.686-6-6s2.686-6 6-6 6 2.686 6 6-2.686 6-6 6z"/></svg>