<svg xmlns="http://www.w3.org/2000/svg" viewBox="0 0 167.6 167.6"><defs><style>.cls-1{fill:#1ed760;}.cls-2{fill:#fff;}</style></defs><title>Spotify_Icon_RGB_Green</title><g id="Layer_2" data-name="Layer 2"><g id="Icon_RGB_Green" data-name="Icon RGB Green"><circle class="cls-1" cx="83.8" cy="83.8" r="83.8"/><path class="cls-2" d="M122.3,50.8c-1.4-7.5-10.1-10.4-17.6-9s-10.4,10.1-9,17.6,10.1,10.4,17.6,9S123.7,58.3,122.3,50.8Z"/><path class="cls-2" d="M115.9,75.3c-2.1-11.6-15.6-16-27.2-13.9S72.1,77,74.2,88.6,89.8,104.6,101.4,102.5,118,86.9,115.9,75.3Z"/><path class="cls-2" d="M108.4,99.4c-2.8-15.3-21.2-21.2-36.5-18.4S46.7,102.2,49.5,117.5,70.7,138.7,86,135.9,111.2,114.7,108.4,99.4Z"/></g></g></svg>